<svg width="59" height="59" viewBox="0 0 59 59" fill="none" xmlns="http://www.w3.org/2000/svg">
<path d="M1 1H58V58H1V1Z" fill="#161616"/>
<path d="M10.02 24.48H6.71V30.87H7.89V25.56H10.02V24.48ZM17.72 24.98H16.25C16.29 25.22 16.32 25.68 16.32 25.9C16.32 26.2 16.31 26.49 16.3 26.77H14.87C14.49 26.77 13.97 26.74 13.55 26.7V28.01C13.98 27.97 14.53 27.97 14.87 27.97H16.19C15.97 29.49 15.47 30.61 14.54 31.53C14.14 31.94 13.64 32.28 13.23 32.51L14.39 33.45C16.18 32.18 17.13 30.61 17.5 27.97H19.75C19.75 29.05 19.62 31.05 19.33 31.68C19.22 31.92 19.08 32.03 18.76 32.03C18.37 32.03 17.85 31.98 17.36 31.89L17.52 33.23C18 33.27 18.6 33.31 19.17 33.31C19.86 33.31 20.24 33.05 20.46 32.54C20.89 31.52 21.01 28.73 21.05 27.65C21.05 27.54 21.09 27.28 21.12 27.12L20.25 26.7C20.01 26.74 19.75 26.77 19.5 26.77H17.62C17.64 26.48 17.65 26.18 17.66 25.87C17.67 25.63 17.69 25.21 17.72 24.98ZM30.19 25.08L28.74 24.63C28.65 24.97 28.44 25.43 28.28 25.67C27.78 26.54 26.85 27.91 25.1 29L26.18 29.83C27.19 29.13 28.12 28.17 28.82 27.24H31.68C31.53 27.86 31.1 28.73 30.58 29.45C29.95 29.03 29.32 28.62 28.79 28.32L27.9 29.23C28.41 29.55 29.07 30 29.72 30.48C28.89 31.31 27.78 32.12 26.05 32.65L27.21 33.66C28.77 33.07 29.91 32.22 30.79 31.29C31.2 31.62 31.57 31.93 31.84 32.18L32.79 31.05C32.5 30.81 32.11 30.52 31.68 30.21C32.39 29.21 32.89 28.14 33.16 27.33C33.25 27.08 33.38 26.81 33.49 26.62L32.47 25.99C32.25 26.06 31.91 26.1 31.6 26.1H29.57C29.69 25.88 29.94 25.43 30.19 25.08ZM41.63 32.78L42.47 33.47C42.56 33.39 42.68 33.29 42.9 33.17C44.02 32.6 45.46 31.52 46.29 30.44L45.52 29.34C44.85 30.31 43.86 31.1 43.05 31.45V26.22C43.05 25.77 43.11 25.38 43.12 25.35H41.63C41.64 25.38 41.71 25.76 41.71 26.21V32.04C41.71 32.31 41.67 32.59 41.63 32.78ZM37 32.63L38.22 33.44C39.07 32.68 39.7 31.7 40 30.57C40.27 29.56 40.3 27.45 40.3 26.27C40.3 25.85 40.36 25.41 40.37 25.36H38.9C38.96 25.61 38.99 25.88 38.99 26.28C38.99 27.49 38.98 29.38 38.7 30.24C38.42 31.09 37.88 32.01 37 32.63ZM48.98 33.92H52.3V27.53H51.11V32.84H48.98V33.92Z" fill="white"/>
<path d="M1 1H58V58H1V1Z" stroke="#161616" stroke-width="2"/>
</svg>
